<svg xmlns="http://www.w3.org/2000/svg" viewBox="0 0 218.72 21.8"><g id="Layer_2" data-name="Layer 2"><g id="Layer_6" data-name="Layer 6"><g id="url"><path id="Path_22" data-name="Path 22" d="M9,5.84a2.79,2.79,0,0,0-1.86.73A8.45,8.45,0,0,0,5.45,9L8,0A16.21,16.21,0,0,1,5.68.66,14.77,14.77,0,0,1,2.86.88v.47A2.17,2.17,0,0,1,4,1.35.73.73,0,0,1,4.34,2a3.21,3.21,0,0,1,0,.62L.46,16.28A6.18,6.18,0,0,1,0,17.59H.35l1.31-.35A4.17,4.17,0,0,1,2.86,17a1.53,1.53,0,0,0,.74.66,2.29,2.29,0,0,0,1.12.27,5.37,5.37,0,0,0,3.64-1.39,9.08,9.08,0,0,0,2.4-3.44A9.76,9.76,0,0,0,11.6,9.2a3.85,3.85,0,0,0-.7-2.55A2.45,2.45,0,0,0,9,5.83m-1.1,6.5a13,13,0,0,1-1.63,3.52,2.65,2.65,0,0,1-2,1.39,1.25,1.25,0,0,1-1-.46L4.9,10.94A12.9,12.9,0,0,1,6.37,8.08c.5-.7,1-1.08,1.35-1.08a.6.6,0,0,1,.58.35,2.88,2.88,0,0,1,.19,1.2,13.89,13.89,0,0,1-.61,3.78"/><path id="Path_23" data-name="Path 23" d="M24.74,14h-.43l-.38,1a4.55,4.55,0,0,1-.7,1.39,1.15,1.15,0,0,1-.71.39c-.31,0-.42,0-.42-.47a2.36,2.36,0,0,1,0-.65l2.17-6.53a5.13,5.13,0,0,0,.3-1.55c0-1.2-.65-1.78-2-1.78a3.65,3.65,0,0,0-1.9.5A6.25,6.25,0,0,0,19,8.08a24.21,24.21,0,0,0-1.73,3.5L18,8.92a5.48,5.48,0,0,0,0-1.28c0-1.24-.62-1.82-1.9-1.82a2.73,2.73,0,0,0-1.74.54A3.53,3.53,0,0,0,13.21,8.1l-.58,1.67h.42l.39-1.13a5.13,5.13,0,0,1,1-1.35.85.85,0,0,1,.73-.38c.27,0,.39,0,.39.38a1.65,1.65,0,0,1,0,.7l-2.67,9.6H16l.27-1.12A40,40,0,0,1,18,11.83a23.82,23.82,0,0,1,1.9-3.56c.62-.89,1.16-1.35,1.62-1.35s.43,0,.43.54a2.76,2.76,0,0,1-.23.93l-2,6a6,6,0,0,0-.35,1.74,1.74,1.74,0,0,0,.28,1,2.11,2.11,0,0,0,1.77.74,3,3,0,0,0,3-2.29Z"/><path id="Path_24" data-name="Path 24" d="M35.22,5.84a3,3,0,0,0-1.93.77,8.46,8.46,0,0,0-1.67,2.55l1.9-6.77A13.66,13.66,0,0,1,30.23,3v.27A23.39,23.39,0,0,1,29,6.07c-.47.73-.89,1.39-1.32,1.93s-1,1.13-1.62,1.82l.27.31a19.89,19.89,0,0,0,1.93-2.28,14.25,14.25,0,0,0,1.43-2.48L25.79,19.75a2.27,2.27,0,0,1-.58,1.09,1.82,1.82,0,0,1-1.16.27v.46h6.61v-.46a2.9,2.9,0,0,1-1.39-.23.83.83,0,0,1-.46-.85,2,2,0,0,1,0-.77l.54-2a2.3,2.3,0,0,0,.85.58,3.76,3.76,0,0,0,1.16,0,5,5,0,0,0,3.48-1.39A9.48,9.48,0,0,0,37.16,13,10.38,10.38,0,0,0,38,9.11a3.91,3.91,0,0,0-.7-2.55,2.46,2.46,0,0,0-2.05-.73m-1.13,6.76a12.09,12.09,0,0,1-1.57,3.33,2.67,2.67,0,0,1-2.05,1.31,1.22,1.22,0,0,1-1-.5l1.47-5.22a17.29,17.29,0,0,1,1.55-3.25C33.05,7.41,33.55,7,34,7a.61.61,0,0,1,.54.38,4,4,0,0,1,0,1.47,12.15,12.15,0,0,1-.42,3.75"/><path id="Path_25" data-name="Path 25" d="M45.82,5.88a3.34,3.34,0,0,0-2,.61,4.31,4.31,0,0,0-1.43,1.74v-8A7.34,7.34,0,0,1,40.1.58H38.7V1A1.65,1.65,0,0,1,40,1.43,2.46,2.46,0,0,1,40.4,2.9V16.51a5.4,5.4,0,0,1,0,1.27h.34l1.58-1.31a4.23,4.23,0,0,0,1.35.93,4,4,0,0,0,1.57.35,4.81,4.81,0,0,0,2.33-.5,4.73,4.73,0,0,0,1.66-2.09,7.57,7.57,0,0,0,.66-3.25,7.39,7.39,0,0,0-1.17-4.48,3.55,3.55,0,0,0-2.93-1.55m1.35,10.17a2.44,2.44,0,0,1-2.25,1.35,3.24,3.24,0,0,1-1.35-.16,3,3,0,0,1-1.2-.77V9.28a3.84,3.84,0,0,1,1.12-2,2.38,2.38,0,0,1,1.9-.74,2.24,2.24,0,0,1,2,1.32,9.65,9.65,0,0,1,.66,4.05A9.28,9.28,0,0,1,47.13,16"/><path id="Path_26" data-name="Path 26" d="M59.5,16.47a3.85,3.85,0,0,1-1.85.5A2.64,2.64,0,0,1,56,16.39a4.06,4.06,0,0,1-1.28-1.7,6.2,6.2,0,0,1-.46-2.55V10.75h7a5.39,5.39,0,0,0-1.08-3.68A3.91,3.91,0,0,0,57,5.88a4.55,4.55,0,0,0-2.63.77,5,5,0,0,0-1.77,2.16A8.64,8.64,0,0,0,52,12.14a7.29,7.29,0,0,0,.62,3,4.78,4.78,0,0,0,4.48,2.74A4.13,4.13,0,0,0,59.73,17a4.55,4.55,0,0,0,1.47-2.09l-.34-.19a4.08,4.08,0,0,1-1.36,1.74M55.21,7.31A2.31,2.31,0,0,1,57,6.3a1.7,1.7,0,0,1,1.57,1.17,6.11,6.11,0,0,1,.5,2.86H54.28a6,6,0,0,1,.92-3"/><path id="Path_27" data-name="Path 27" d="M72.46,16.89a1.06,1.06,0,0,1-.5,0,.61.61,0,0,1-.54-.22,2.21,2.21,0,0,1,0-.81v-6a8.62,8.62,0,0,0,0-1.9,2.66,2.66,0,0,0-.78-1.24,3.66,3.66,0,0,0-2.59-.81,6.31,6.31,0,0,0-1.78.23,4.32,4.32,0,0,0-1.35.61,2.47,2.47,0,0,0-.77.74,1.24,1.24,0,0,0-.27.85,1.54,1.54,0,0,0,.31,1,1.29,1.29,0,0,0,.54.22,1.35,1.35,0,0,0,1.08,0,1.2,1.2,0,0,0,.35-.9,1.33,1.33,0,0,0-.31-.89,1.35,1.35,0,0,0-.73-.46,2.62,2.62,0,0,1,2.2-.81,2.08,2.08,0,0,1,1.51.5,2.34,2.34,0,0,1,.54,1.74v1.4a1,1,0,0,1-.62.93,9.38,9.38,0,0,1-1.82.77,17.73,17.73,0,0,0-2,.81,3.91,3.91,0,0,0-1.28,1,2.49,2.49,0,0,0-.54,1.66,2.6,2.6,0,0,0,.7,1.93,2.66,2.66,0,0,0,2,.7,4.43,4.43,0,0,0,1.93-.65,4.34,4.34,0,0,0,1.55-1.55,2.35,2.35,0,0,0,.42,1.43,1.76,1.76,0,0,0,1.47.54,2.65,2.65,0,0,0,1,0,6.05,6.05,0,0,0,1-.62l-.22-.39Zm-3.17-1.74a3.06,3.06,0,0,1-2.52,1.71,1.86,1.86,0,0,1-1.27-.5,2.19,2.19,0,0,1-.5-1.51,2.67,2.67,0,0,1,.38-1.43,3.17,3.17,0,0,1,.9-.85,7.33,7.33,0,0,1,1.4-.7c.37-.17.73-.35,1.08-.55a1.61,1.61,0,0,0,.54-.5Z"/><path id="Path_28" data-name="Path 28" d="M84.06,15.19V6a7.34,7.34,0,0,1-2.28.31h-1.4v.46a1.58,1.58,0,0,1,1.32.47,2.32,2.32,0,0,1,.39,1.47V13.4a5.84,5.84,0,0,1-.39,2,3.56,3.56,0,0,1-1.08,1.46,2.4,2.4,0,0,1-1.58.39A1.53,1.53,0,0,1,77.91,17a1.25,1.25,0,0,1-.46-.85,6.09,6.09,0,0,1,0-1.35V6a7.92,7.92,0,0,1-2.32.31H73.78v.46a1.67,1.67,0,0,1,1.31.47,2.44,2.44,0,0,1,.35,1.47v5.49a7.56,7.56,0,0,0,.19,1.77,2.65,2.65,0,0,0,.55,1.13,3.15,3.15,0,0,0,2.32.85A3.86,3.86,0,0,0,82,15.24v2.63a6.49,6.49,0,0,1,2.28-.31h1.39v-.31a1.65,1.65,0,0,1-1.32-.46,2.55,2.55,0,0,1-.31-1.58"/><path id="Path_29" data-name="Path 29" d="M93,16.54a1.55,1.55,0,0,1-1.16.7,1.31,1.31,0,0,1-1.05-.43,2.11,2.11,0,0,1-.38-1.46V6.65h3.28V6.22H90.35V2.36a8.18,8.18,0,0,1-2,.31v3.4H86.25v.42h2.13v7.57a8.53,8.53,0,0,0,0,1.89,3.36,3.36,0,0,0,.7,1.2,2.37,2.37,0,0,0,.85.54,3.69,3.69,0,0,0,1.24,0c1.55,0,2.51-1,2.9-3.05h-.46a3.91,3.91,0,0,1-.66,1.9"/><path id="Path_30" data-name="Path 30" d="M101.38,6.19v.42a3.81,3.81,0,0,1,1.28.31.84.84,0,0,1,.38.77,3.44,3.44,0,0,1-.22,1l-2.48,6.42L97.71,8.51a2.58,2.58,0,0,1-.27-1.09.65.65,0,0,1,.35-.65,3.76,3.76,0,0,1,1.16,0V6.19H96.08a19.64,19.64,0,0,1-2.17,0v.46a1.3,1.3,0,0,1,.74.23,2.52,2.52,0,0,1,.77,1l3.87,9.67-.78,2c-.43,1.17-1.05,1.75-1.85,1.74a1,1,0,0,0,.62-1,1,1,0,0,0-.35-.78,1.14,1.14,0,0,0-.81-.27,1.06,1.06,0,0,0-.85.31,1.31,1.31,0,0,0,0,1.82,1.67,1.67,0,0,0,1.08.35,3.62,3.62,0,0,0,.93,0,1.8,1.8,0,0,0,.9-.66,3.84,3.84,0,0,0,.92-1.54l.78-1.9,3.52-9.51A3.78,3.78,0,0,1,104,7a1.33,1.33,0,0,1,.81-.42V6.18Z"/><path id="Path_31" data-name="Path 31" d="M112.47,12.1l-1.62-1.2-.62-.35a12.33,12.33,0,0,1-1.7-1.27A1.78,1.78,0,0,1,108,8a1.54,1.54,0,0,1,.54-1.24,1.82,1.82,0,0,1,1.28-.46,2.43,2.43,0,0,1,2.09.93,5.63,5.63,0,0,1,.92,2.43h.5V5.8h-.55c0,.62-.19,1-.46,1a.86.86,0,0,1-.39,0,3.66,3.66,0,0,0-.81-.66,4.12,4.12,0,0,0-1.43-.23,3.83,3.83,0,0,0-2.36.74,2.52,2.52,0,0,0-.93,2.12,2.68,2.68,0,0,0,.43,1.51,4,4,0,0,0,1,1.08l1.66,1.13a10.72,10.72,0,0,1,1.93,1.43,2.05,2.05,0,0,1,.58,1.47,1.87,1.87,0,0,1-2,2.07,2.44,2.44,0,0,1-2.2-1,7.63,7.63,0,0,1-.93-3h-.54v4.44h.5a1.87,1.87,0,0,1,.12-.57.37.37,0,0,1,.31-.35,7.06,7.06,0,0,0,.92.62,4.72,4.72,0,0,0,1.74.3,4.33,4.33,0,0,0,2.7-.81,2.69,2.69,0,0,0,1.09-2.28,3,3,0,0,0-.39-1.54,5,5,0,0,0-.85-1.09"/><path id="Path_32" data-name="Path 32" d="M125.58,15.19V6a7.65,7.65,0,0,1-2.28.31h-1.39v.46a1.57,1.57,0,0,1,1.31.47,2.2,2.2,0,0,1,.39,1.47V13.4a5,5,0,0,1-.39,2,3.47,3.47,0,0,1-1.08,1.46,2.41,2.41,0,0,1-1.51.5,1.51,1.51,0,0,1-1.12-.31,1.24,1.24,0,0,1-.47-.85,7.61,7.61,0,0,1,0-1.35V6a7.65,7.65,0,0,1-2.28.31h-1.39v.47a1.64,1.64,0,0,1,1.31.46,2.47,2.47,0,0,1,.39,1.47v5.49a7.49,7.49,0,0,0,0,1.77,2.61,2.61,0,0,0,.62,1.32,3,3,0,0,0,2.28.85,4.44,4.44,0,0,0,3.63-2.86v2.63a6.55,6.55,0,0,1,2.28-.31h1.4v-.31a1.69,1.69,0,0,1-1.32-.47,2.41,2.41,0,0,1-.38-1.57"/><path id="Path_33" data-name="Path 33" d="M137.57,6.53a3.41,3.41,0,0,0-2.09-.65,3.58,3.58,0,0,0-2.13.61,4.22,4.22,0,0,0-1.43,1.78V6a7.65,7.65,0,0,1-2.28.31h-1.39v.47a1.63,1.63,0,0,1,1.31.46A2.47,2.47,0,0,1,130,8.67V19.76a1.44,1.44,0,0,1-.35,1.08,1.61,1.61,0,0,1-1.12.28v.46H134v-.47a3,3,0,0,1-1.57-.35,1.31,1.31,0,0,1-.54-1.24V16.7a3.09,3.09,0,0,0,1.08.85,3.16,3.16,0,0,0,1.51.35,4.48,4.48,0,0,0,2.86-.93A5.52,5.52,0,0,0,139,14.54a8.62,8.62,0,0,0,.54-3.18,7.18,7.18,0,0,0-.54-3,3.91,3.91,0,0,0-1.47-1.86m-3.25,10.71a2.76,2.76,0,0,1-1.43-.38,2.42,2.42,0,0,1-.93-1V9.51a3.91,3.91,0,0,1,1.16-2,2.47,2.47,0,0,1,1.78-.73c1.74,0,2.59,1.7,2.59,5.14s-1.12,5.37-3.17,5.37"/><path id="Path_34" data-name="Path 34" d="M150.44,6.53a3.36,3.36,0,0,0-2.13-.65,3.65,3.65,0,0,0-3.52,2.4V6a7.53,7.53,0,0,1-2.31.31h-1.35v.47a1.49,1.49,0,0,1,1.27.46,2.26,2.26,0,0,1,.39,1.47V19.76a1.71,1.71,0,0,1-.31,1.08,1.78,1.78,0,0,1-1.16.28v.46h5.6v-.47a3.15,3.15,0,0,1-1.62-.35c-.35,0-.5-.62-.5-1.24V16.7a2.64,2.64,0,0,0,1,.85,3.31,3.31,0,0,0,1.54.35,4.25,4.25,0,0,0,2.82-.93,5.47,5.47,0,0,0,1.7-2.43,9.57,9.57,0,0,0,.54-3.18,7.74,7.74,0,0,0-.54-3,4.19,4.19,0,0,0-1.47-1.86m-3.32,10.71a2.77,2.77,0,0,1-1.43-.39,2.56,2.56,0,0,1-.89-1V9.51a4.15,4.15,0,0,1,1.12-2.26,2.62,2.62,0,0,1,1.82-.73c1.7,0,2.55,1.7,2.55,5.14s-1,5.57-3.17,5.57"/><path id="Path_35" data-name="Path 35" d="M157.52,15.54V.23a7.06,7.06,0,0,1-2.28.31h-1.39V.93a1.56,1.56,0,0,1,1.31.46,2.31,2.31,0,0,1,.39,1.51V15.54a1.6,1.6,0,0,1-.39,1.24,1.92,1.92,0,0,1-1.31.35v.46h5.37v-.34a2.06,2.06,0,0,1-1.32-.35,1.74,1.74,0,0,1-.38-1.35"/><path id="Path_36" data-name="Path 36" d="M167.22,6.19v.42a3.77,3.77,0,0,1,1.24.31.82.82,0,0,1,.38.77,3.15,3.15,0,0,1-.22,1l-2.44,6.42-2.66-6.61a2.44,2.44,0,0,1-.27-1.09.61.61,0,0,1,.38-.65,3.76,3.76,0,0,1,1.16,0V6.19h-2.9a19.64,19.64,0,0,1-2.17,0v.46a1.42,1.42,0,0,1,.77.23,2.45,2.45,0,0,1,.74,1l3.86,9.67-.77,2c-.47,1.17-1.09,1.74-1.9,1.74a1.12,1.12,0,0,0,.42-1.52,1.14,1.14,0,0,0-.15-.23,1.26,1.26,0,0,0-.81-.27,1.19,1.19,0,0,0-.9.31,1.31,1.31,0,0,0,0,1.82,1.75,1.75,0,0,0,1.08.35,3.62,3.62,0,0,0,.93,0,1.77,1.77,0,0,0,1-.66,4.17,4.17,0,0,0,1-1.55l.74-1.88,3.64-9.55A3.3,3.3,0,0,1,170,7a1.4,1.4,0,0,1,.77-.42V6.19Z"/><path id="Path_37" data-name="Path 37" d="M173,16.39a.66.66,0,0,0-.65.66.64.64,0,0,0,.65.65.65.65,0,0,0,.66-.65.66.66,0,0,0-.66-.66h0"/><path id="Path_38" data-name="Path 38" d="M180.71,17.24c-2.85,0-4.48-1.93-4.48-5.17s1.7-5.22,4.52-5.22a3.86,3.86,0,0,1,3.87,2.74l.7-.08a4.25,4.25,0,0,0-4.41-3c-3.24,0-5.14,2.16-5.14,5.76s1.86,5.53,4.95,5.53a4.33,4.33,0,0,0,4.53-3.25h-.55a3.85,3.85,0,0,1-4,2.7"/><path id="Path_39" data-name="Path 39" d="M192.78,6.3a5.07,5.07,0,0,0-5.27,4.85h0a5.43,5.43,0,0,0,.05.9A5.22,5.22,0,0,0,198,13a6.91,6.91,0,0,0,0-.91,5.08,5.08,0,0,0-4.32-5.72,4.91,4.91,0,0,0-.86,0m0,11c-2.86,0-4.6-2-4.6-5.22s1.74-5.22,4.6-5.22,4.56,1.93,4.56,5.22-1.74,5.17-4.56,5.17Z"/><path id="Path_40" data-name="Path 40" d="M214.59,6.26a4.53,4.53,0,0,0-4.53,3,3.86,3.86,0,0,0-3.86-3,4.51,4.51,0,0,0-4.41,2.86V6.53h-.58V17.59h.62V11.06a4.21,4.21,0,0,1,4.22-4.21h.07a3.27,3.27,0,0,1,3.6,2.93v0a3,3,0,0,1,0,.6v7.2h.62V11a4.23,4.23,0,0,1,4.14-4.18,3.33,3.33,0,0,1,3.62,3,2.62,2.62,0,0,1,0,.56v7.2h.62V10.28a3.86,3.86,0,0,0-3.7-4h-.44"/></g></g></g></svg>