<svg xmlns="http://www.w3.org/2000/svg" viewBox="0 0 33.5 33.51"><defs><style>.cls-1{fill:#fff;}</style></defs><g id="Layer_2" data-name="Layer 2"><g id="Layer_6" data-name="Layer 6"><g id="favicon-2"><path id="background-2" d="M28.36,33.51H5.15A5.17,5.17,0,0,1,0,28.36V5.15A5.17,5.17,0,0,1,5.15,0h23.2A5.16,5.16,0,0,1,33.5,5.15v23.2a5.16,5.16,0,0,1-5.15,5.15"/><path id="B-2" class="cls-1" d="M24.62,6.81a9.72,9.72,0,0,0-5.05-1H10.3v.6a3.25,3.25,0,0,1,1.61.42,1,1,0,0,1,.47.89,6.24,6.24,0,0,1-.28,1.48l-4,15.07A8,8,0,0,1,7.47,26a1.89,1.89,0,0,1-.88.7,8.88,8.88,0,0,1-1.63,0l0,.65h10a16.65,16.65,0,0,0,5.2-.74,7.82,7.82,0,0,0,3.57-2.27,5.35,5.35,0,0,0,1.24-3.57,4,4,0,0,0-1.76-3.2A9,9,0,0,0,18,16.08a15,15,0,0,0,4.31-1.16,7.46,7.46,0,0,0,2.88-2.18,4.69,4.69,0,0,0,1-3,3.41,3.41,0,0,0-1.63-3M19,17.47a4.16,4.16,0,0,1,.83,2.74,7.62,7.62,0,0,1-.65,3.29,5.56,5.56,0,0,1-1.9,2.31,5.8,5.8,0,0,1-3.11.84A1.79,1.79,0,0,1,13,26.23a1.12,1.12,0,0,1-.33-.88,5.86,5.86,0,0,1,.23-1.25l2-7.7h1.35A3.2,3.2,0,0,1,19,17.47m1.85-4.92A5.53,5.53,0,0,1,19,15a4.71,4.71,0,0,1-2.83,1.12H15.11l1.95-7.51a4.28,4.28,0,0,1,.75-1.77,1.79,1.79,0,0,1,1.3-.41,2.1,2.1,0,0,1,1.81.74,3.77,3.77,0,0,1,.55,2.23,8.25,8.25,0,0,1-.65,3.2"/></g></g></g></svg>