<svg xmlns="http://www.w3.org/2000/svg" viewBox="0 0 30 30"><defs><style>.cls-1{fill:#fff;}</style></defs><g id="Layer_2" data-name="Layer 2"><g id="Layer_6" data-name="Layer 6"><path id="Rectangle_58" data-name="Rectangle 58" class="cls-1" d="M15,0h0A15,15,0,0,1,30,15h0A15,15,0,0,1,15,30h0A15,15,0,0,1,0,15H0A15,15,0,0,1,15,0Z"/><path id="Path_51" data-name="Path 51" d="M15,3A12,12,0,0,0,6.2,23.13h0a12,12,0,0,0,17,.69q.36-.33.69-.69h0A12,12,0,0,0,15,3Zm0,21.61a9.65,9.65,0,0,1-6.66-2.7,7.19,7.19,0,0,1,13.32,0A9.66,9.66,0,0,1,15,24.62Zm-2.4-12A2.4,2.4,0,1,1,15,15h0a2.4,2.4,0,0,1-2.4-2.4Zm10.7,7.2a9.56,9.56,0,0,0-4.7-4.06,4.8,4.8,0,1,0-7.2,0,9.56,9.56,0,0,0-4.69,4A9.41,9.41,0,0,1,5.42,15a9.6,9.6,0,0,1,19.2,0h0a9.41,9.41,0,0,1-1.31,4.8Z"/></g></g></svg>